<svg xmlns="http://www.w3.org/2000/svg" viewBox="0 0 340 72" role="img" aria-labelledby="title desc">
  <title id="title">TARA logo</title>
  <desc id="desc">TARA wordmark with circular emblem</desc>
  <circle cx="30" cy="36" r="24" fill="#f59e0b"/>
  <path d="M23 25h14v4h-5v18h-4V29h-5z" fill="#1e2b56"/>
  <path d="M56 51V20h7v31zM67 20h8l10 16V20h7v31h-7L74 34v17h-7zM100 51l12-31h8l12 31h-8l-2-6h-12l-2 6zm12-12h8l-4-11zM140 51V20h8l9 15 9-15h8v31h-7V32l-8 13h-4l-8-13v19z" fill="#ffffff"/>
  <text x="186" y="39" font-size="34" font-family="Segoe UI, Arial, sans-serif" font-weight="600" fill="#ffffff">TARA</text>
  <text x="186" y="55" font-size="11" font-family="Segoe UI, Arial, sans-serif" fill="#dbeafe">TALENT ACQUISITION PLATFORM</text>
</svg>
